<?xml version="1.0" encoding="UTF-8"?>
<svg width="96px" height="96px" viewBox="0 0 96 96" version="1.1" xmlns="http://www.w3.org/2000/svg" xmlns:xlink="http://www.w3.org/1999/xlink">
    <!-- Generator: Sketch 48.2 (47327) - http://www.bohemiancoding.com/sketch -->
    <title>Icon/White/Clear/Circle</title>
    <desc>Created with Sketch.</desc>
    <defs></defs>
    <g id="Business-Cards" stroke="none" stroke-width="1" fill="none" fill-rule="evenodd">
        <g id="Icon/White/Clear/Circle" fill="#FFFFFF">
            <path d="M48,0 L48,0 C74.509668,-4.86974701e-15 96,21.490332 96,48 L96,48 C96,74.509668 74.509668,96 48,96 L48,96 C21.490332,96 3.24649801e-15,74.509668 0,48 L0,48 C-3.24649801e-15,21.490332 21.490332,4.86974701e-15 48,0 Z M29.8757367,25.9735892 C30.0597037,26.0695738 30.2916621,26.2935377 30.3956435,26.453512 L30.5796106,26.7494643 L30.627602,41.4510974 C30.6675948,54.8089468 30.6835919,56.2087214 30.811569,56.8566171 C31.4434558,60.0241071 32.9871793,62.7676654 35.2187795,64.7193512 C37.5543611,66.7590228 40.4338453,67.9508309 43.377318,68.0788103 C44.5131146,68.1348013 44.9610343,68.2707794 45.3049727,68.6627163 C45.5289326,68.9106764 45.7368953,69.4065965 45.7368953,69.670554 C45.7368953,69.9345115 45.5289326,70.422433 45.3049727,70.6783918 C44.8970458,71.1423171 44.449126,71.2303029 43.0733725,71.1343184 C37.8103153,70.7583789 33.1551492,68.0068219 30.2676664,63.5755353 C28.8839143,61.4638753 27.9800762,58.9202848 27.6841292,56.3127046 C27.5641507,55.2488759 27.5641507,27.0614141 27.6841292,26.7334669 C28.0040719,25.8936021 29.0758799,25.5176627 29.8757367,25.9735892 Z M54.9672419,25.9175983 C61.8300125,26.925436 67.3410253,32.0366131 68.8287588,38.7875262 C69.1966928,40.4672558 69.21269,40.8431952 69.21269,48.5459551 C69.21269,55.2248798 69.1966928,55.9847574 69.0607172,56.8566171 C68.4688232,60.6080131 66.9091026,63.7275109 64.333564,66.3030962 C61.3181042,69.3186107 57.2708292,71.0703287 53.1595657,71.1503158 C52.0477648,71.1743119 51.6718322,71.0303351 51.3278938,70.4384304 L51.1119325,70.0704896 L51.1119325,48.4739667 C51.1119325,27.1174051 51.1119325,26.869445 51.2799024,26.5414978 C51.4318752,26.2375468 51.7438193,25.9575918 52.0397663,25.8456099 C52.2957204,25.7496253 54.1113952,25.7896189 54.9672419,25.9175983 Z M54.1353909,48.4739667 L54.1353909,68.0468155 L54.5353192,67.9908245 C58.9105355,67.3749236 62.9338148,64.4074014 64.8374737,60.3840492 C65.2933921,59.4242037 65.6533276,58.360375 65.9012832,57.2405553 C66.0932488,56.4086892 66.0932488,56.3207034 66.1252431,48.937892 C66.1492388,42.5149261 66.1332416,41.3471141 66.0212617,40.5312455 C65.2294035,34.7801714 60.8541873,30.1649144 55.1592075,29.0610922 C54.687292,28.9651076 54.2633679,28.8931192 54.2153765,28.8931192 C54.1673851,28.8931192 54.1353909,35.9559821 54.1353909,48.4739667 Z" id="Combined-Shape"></path>
        </g>
    </g>
</svg>