<?xml version="1.0" encoding="UTF-8"?>
<svg width="96px" height="96px" viewBox="0 0 96 96" version="1.1" xmlns="http://www.w3.org/2000/svg" xmlns:xlink="http://www.w3.org/1999/xlink">
    <!-- Generator: Sketch 48.2 (47327) - http://www.bohemiancoding.com/sketch -->
    <title>LST/Blue/White Background/Circle</title>
    <desc>Created with Sketch.</desc>
    <defs></defs>
    <g id="Business-Cards" stroke="none" stroke-width="1" fill="none" fill-rule="evenodd">
        <g id="LST/Blue/White-Background/Circle">
            <circle id="White" fill="#FFFFFF" cx="48" cy="48" r="37"></circle>
            <path d="M48,0 L48,0 C74.509668,-4.86974701e-15 96,21.490332 96,48 L96,48 C96,74.509668 74.509668,96 48,96 L48,96 C21.490332,96 3.24649801e-15,74.509668 0,48 L0,48 C-3.24649801e-15,21.490332 21.490332,4.86974701e-15 48,0 Z M29.2815913,25.19577 C29.4655583,25.2917545 29.6975168,25.5157184 29.8014982,25.6756927 L29.9854652,25.971645 L30.0334566,40.6732781 C30.0734494,54.0311275 30.0894466,55.4309021 30.2174236,56.0787978 C30.8493104,59.2462878 32.3930339,61.9898461 34.6246342,63.9415319 C36.9602158,65.9812035 39.8396999,67.1730116 42.7831727,67.300991 C43.9189692,67.356982 44.366889,67.4929601 44.7108274,67.884897 C44.9347872,68.1328571 45.14275,68.6287772 45.14275,68.8927347 C45.14275,69.1566922 44.9347872,69.6446137 44.7108274,69.9005725 C44.3029004,70.3644978 43.8549807,70.4524836 42.4792271,70.3564991 C37.2161699,69.9805596 32.5610038,67.2290026 29.6735211,62.797716 C28.289769,60.686056 27.3859309,58.1424655 27.0899839,55.5348854 C26.9700054,54.4710566 26.9700054,26.2835948 27.0899839,25.9556476 C27.4099266,25.1157828 28.4817346,24.7398434 29.2815913,25.19577 Z M54.8553094,25.1251397 C61.71808,26.1329774 67.2290928,31.2441545 68.7168263,37.9950676 C69.0847604,39.6747972 69.1007575,40.0507367 69.1007575,47.7534965 C69.1007575,54.4324212 69.0847604,55.1922989 68.9487847,56.0641585 C68.3568908,59.8155545 66.7971702,62.9350523 64.2216315,65.5106376 C61.2061717,68.5261521 57.1588967,70.2778701 53.0476332,70.3578572 C51.9358324,70.3818533 51.5598997,70.2378765 51.2159613,69.6459718 L51,69.2780311 L51,47.6815081 C51,26.3249465 51,26.0769864 51.1679699,25.7490392 C51.3199427,25.4450882 51.6318868,25.1651332 51.9278338,25.0531513 C52.1837879,24.9571667 53.9994627,24.9971603 54.8553094,25.1251397 Z M54,47.5808475 L54,67.1536962 L54.3999284,67.0977053 C58.7751446,66.4818044 62.7984239,63.5142822 64.7020829,59.49093 C65.1580012,58.5310845 65.5179367,57.4672558 65.7658923,56.3474361 C65.9578579,55.51557 65.9578579,55.4275842 65.9898522,48.0447728 C66.0138479,41.6218069 65.9978508,40.4539949 65.8858708,39.6381263 C65.0940127,33.8870522 60.7187964,29.2717952 55.0238166,28.167973 C54.5519011,28.0719884 54.1279771,28 54.0799857,28 C54.0319943,28 54,35.0628629 54,47.5808475 Z" id="Combined-Shape" fill="#12265E"></path>
        </g>
    </g>
</svg>